<?xml version="1.0" encoding="utf-8"?>
<svg viewBox="7.1 7.042 33.951 33.942" xmlns="http://www.w3.org/2000/svg">
  <path d="M43,15H5c-1.1,0-2-0.9-2-2v-2c0-1.1,0.9-2,2-2h38c1.1,0,2,0.9,2,2v2C45,14.1,44.1,15,43,15z" transform="matrix(0.707107, -0.707107, 0.707107, 0.707107, -1.374667, 32.498714)" style="fill: rgb(252, 252, 252);"/>
  <path d="M 43.071 27.013 L 5.071 27.013 C 3.971 27.013 3.071 26.113 3.071 25.013 L 3.071 23.013 C 3.071 21.913 3.971 21.013 5.071 21.013 L 43.071 21.013 C 44.171 21.013 45.071 21.913 45.071 23.013 L 45.071 25.013 C 45.071 26.113 44.171 27.013 43.071 27.013 Z" style="fill: rgb(252, 252, 252);" transform="matrix(0.707108, 0.707106, -0.707106, 0.707108, 24.029942, -9.987522)"/>
</svg>