<?xml version="1.0" encoding="utf-8"?>
<svg viewBox="0 0 48 48" xmlns="http://www.w3.org/2000/svg">
  <path d="M43,15H5c-1.1,0-2-0.9-2-2v-2c0-1.1,0.9-2,2-2h38c1.1,0,2,0.9,2,2v2C45,14.1,44.1,15,43,15z" style="fill: rgb(252, 252, 252);"/>
  <path d="M43,27H5c-1.1,0-2-0.9-2-2v-2c0-1.1,0.9-2,2-2h38c1.1,0,2,0.9,2,2v2C45,26.1,44.1,27,43,27z" style="fill: rgb(252, 252, 252);"/>
  <path d="M43,39H5c-1.1,0-2-0.9-2-2v-2c0-1.1,0.9-2,2-2h38c1.1,0,2,0.9,2,2v2C45,38.1,44.1,39,43,39z" style="fill: rgba(252, 252, 252, 0.82);"/>
</svg>