<?xml version="1.0" encoding="utf-8"?>
<svg viewBox="0 0 590 590" xmlns="http://www.w3.org/2000/svg">
  <path id="path2" d="M 143.34 0 L 143.41 0.25 C 143.44 0.386 146.57 11.865 150.36 25.765 C 154.15 39.655 157.43 51.545 157.64 52.185 C 157.86 52.815 158.27 53.895 158.56 54.585 C 158.85 55.265 159.28 56.225 159.52 56.705 C 159.76 57.185 160.18 57.965 160.45 58.445 C 160.71 58.915 161.25 59.805 161.65 60.415 C 162.04 61.025 162.73 62.005 163.17 62.585 C 163.61 63.175 164.32 64.055 164.75 64.545 C 165.19 65.035 165.52 65.455 165.51 65.465 C 165.49 65.485 162.01 64.925 157.77 64.215 C 153.53 63.515 150.05 62.955 150.03 62.975 C 150.01 62.985 153.24 70.755 157.19 80.225 C 161.15 89.695 164.71 98.105 165.1 98.915 C 165.48 99.725 166.11 100.915 166.5 101.565 C 166.88 102.215 167.45 103.125 167.77 103.605 C 168.09 104.085 168.67 104.905 169.07 105.435 C 169.47 105.955 170.17 106.825 170.63 107.355 C 171.09 107.885 172.14 108.975 172.95 109.775 C 173.76 110.565 174.95 111.635 175.59 112.145 C 176.23 112.655 177.36 113.485 178.1 113.985 C 178.83 114.485 179.89 115.155 180.45 115.475 C 181 115.795 181.86 116.255 182.34 116.495 C 182.83 116.735 183.83 117.195 184.56 117.505 C 185.29 117.825 186.67 118.325 187.62 118.625 C 188.57 118.925 189.44 119.215 189.55 119.255 L 189.74 119.335 L 189.55 119.345 C 189.44 119.355 184.25 119.875 178.01 120.505 C 171.76 121.135 166.64 121.665 166.62 121.685 C 166.6 121.705 177.32 129.735 190.43 139.535 C 203.55 149.325 214.67 157.615 215.15 157.955 C 215.63 158.285 216.57 158.885 217.23 159.285 C 217.9 159.685 219.09 160.325 219.88 160.715 C 220.68 161.105 221.8 161.615 222.39 161.855 L 223.45 162.285 L 223.16 162.395 C 223 162.455 219.13 163.915 214.56 165.625 C 209.99 167.345 206.19 168.785 206.12 168.825 C 206.03 168.875 207.82 169.865 211.2 171.655 C 214.07 173.175 219.15 175.865 222.48 177.635 C 225.82 179.405 232.54 182.965 237.41 185.555 C 242.28 188.135 246.7 190.475 247.23 190.755 C 247.76 191.045 248.65 191.475 249.21 191.725 C 249.76 191.975 250.76 192.385 251.42 192.635 C 252.08 192.885 253.22 193.265 253.95 193.485 C 254.67 193.705 255.98 194.035 256.85 194.215 C 257.71 194.405 259.11 194.645 259.95 194.755 C 260.79 194.865 262.25 194.985 263.19 195.015 C 264.13 195.045 264.87 195.105 264.85 195.145 C 264.83 195.185 260.99 198.175 256.33 201.795 C 249.83 206.835 247.89 208.395 248.02 208.435 C 248.12 208.475 260.35 208.905 275.21 209.395 C 290.06 209.875 302.29 210.305 302.38 210.335 C 302.52 210.385 301.39 211.725 296.78 216.945 C 293.61 220.555 291.02 223.505 291.04 223.525 C 291.05 223.535 296.69 223.025 303.57 222.385 C 310.45 221.745 318.42 221.015 321.28 220.745 C 324.14 220.485 328.58 220.075 331.13 219.835 C 333.69 219.595 336.42 219.295 337.19 219.165 C 337.97 219.035 338.75 218.885 338.94 218.825 C 339.13 218.775 339.3 218.755 339.31 218.775 C 339.34 218.785 337.99 221.795 336.32 225.435 C 334.66 229.085 333.33 232.085 333.37 232.095 C 333.41 232.115 340.13 230.585 348.31 228.695 C 356.48 226.815 363.72 225.125 364.38 224.945 C 365.04 224.755 365.89 224.505 366.28 224.375 C 366.75 224.215 366.98 224.175 366.97 224.245 C 366.97 224.315 366.72 225.395 366.41 226.655 C 365.95 228.515 365.88 228.935 366 228.895 C 366.09 228.875 370.14 227.895 375.01 226.715 C 379.88 225.545 384.36 224.435 384.98 224.255 C 385.59 224.075 386.53 223.775 387.05 223.575 C 387.58 223.385 388.49 223.035 389.08 222.795 C 389.66 222.545 390.67 222.075 391.33 221.745 C 391.98 221.405 392.54 221.135 392.56 221.135 C 392.58 221.135 392.59 221.405 392.59 221.735 C 392.59 222.065 392.62 222.495 392.65 222.685 L 392.71 223.035 L 400.43 220.465 C 404.67 219.045 408.49 217.735 408.91 217.555 C 409.34 217.365 410.14 216.985 410.7 216.705 C 411.25 216.425 412.25 215.875 412.91 215.475 C 413.57 215.085 414.55 214.445 415.08 214.075 C 415.61 213.705 416.43 213.085 416.91 212.705 C 417.38 212.335 418.26 211.575 418.85 211.035 L 419.94 210.055 L 420.44 210.455 C 420.72 210.675 421.18 211.005 421.46 211.185 C 421.74 211.355 422.3 211.675 422.71 211.875 C 423.12 212.085 423.78 212.365 424.18 212.495 C 424.58 212.625 425.27 212.815 425.72 212.915 C 426.33 213.045 426.93 213.095 428.12 213.085 C 429.24 213.085 429.92 213.035 430.42 212.915 C 430.81 212.835 431.46 212.645 431.87 212.515 C 432.27 212.375 433 212.075 433.48 211.835 C 433.96 211.595 434.72 211.125 435.17 210.785 C 435.61 210.455 436.31 209.835 436.71 209.415 C 437.11 208.995 437.67 208.305 437.95 207.895 C 438.23 207.475 438.64 206.745 438.87 206.265 C 439.09 205.785 439.6 204.445 440 203.275 C 440.41 202.105 441.02 200.265 441.37 199.185 C 441.72 198.095 442.32 196.095 442.71 194.745 C 443.11 193.395 443.67 191.315 443.97 190.125 C 444.27 188.935 444.7 187.095 444.93 186.035 C 445.16 184.975 445.48 183.375 445.64 182.475 C 445.8 181.575 446.04 180.075 446.18 179.155 C 446.31 178.225 446.48 176.835 446.56 176.065 C 446.64 175.305 446.75 174.045 446.8 173.275 C 446.86 172.505 446.9 170.775 446.9 169.425 C 446.9 168.065 446.86 166.375 446.8 165.665 C 446.75 164.955 446.61 163.765 446.51 163.025 C 446.4 162.285 446.21 161.175 446.08 160.565 C 445.95 159.955 445.71 159.005 445.55 158.465 C 445.39 157.915 445.1 157.045 444.91 156.535 C 444.72 156.025 444.36 155.155 444.1 154.605 C 443.84 154.055 443.41 153.235 443.13 152.775 C 442.86 152.325 442.27 151.455 441.82 150.855 C 441.37 150.255 440.56 149.315 440.02 148.775 C 439.48 148.235 438.63 147.485 438.13 147.115 C 437.63 146.745 436.92 146.255 436.55 146.025 C 436.18 145.795 435.46 145.405 434.95 145.145 C 434.45 144.895 433.73 144.565 433.37 144.425 C 433 144.285 432.31 144.055 431.83 143.905 C 431.35 143.765 430.51 143.545 429.95 143.435 C 429.4 143.325 428.58 143.185 428.12 143.125 C 427.68 143.065 426.38 143.005 425.24 143.005 C 423.83 143.015 422.76 143.065 421.91 143.175 C 421.23 143.265 420.01 143.475 419.22 143.635 C 418.43 143.795 416.68 144.235 415.33 144.625 C 413.97 145.015 412.28 145.465 411.56 145.625 C 410.85 145.785 409.59 146.025 408.77 146.165 C 407.95 146.295 406.59 146.475 405.74 146.555 C 404.9 146.635 403.36 146.695 402.33 146.695 C 401.29 146.695 399.94 146.655 399.33 146.595 C 398.72 146.545 397.68 146.415 397.02 146.305 C 396.36 146.205 395.21 145.965 394.47 145.785 C 393.73 145.605 392.58 145.285 391.92 145.065 C 391.26 144.845 390.25 144.475 389.69 144.245 C 389.13 144.015 388.03 143.505 387.24 143.105 C 386.45 142.705 385.25 142.045 384.57 141.625 C 383.9 141.215 382.81 140.495 382.15 140.025 C 381.5 139.565 380.42 138.735 379.77 138.195 C 379.12 137.645 378.05 136.715 377.39 136.115 C 376.74 135.515 375.64 134.405 374.95 133.655 C 374.25 132.915 373.27 131.805 372.76 131.195 C 372.25 130.585 371.53 129.695 371.16 129.225 C 370.78 128.745 370.13 127.875 369.71 127.295 C 369.28 126.715 368.46 125.525 367.88 124.645 C 367.29 123.775 366.43 122.425 365.97 121.665 C 365.5 120.895 364.75 119.615 364.3 118.825 C 363.85 118.025 363.02 116.465 362.45 115.355 C 361.87 114.245 361.03 112.525 360.57 111.555 C 360.11 110.575 359.39 108.965 358.96 107.985 C 358.54 107.005 357.93 105.555 357.62 104.765 C 357.3 103.965 356.72 102.465 356.33 101.435 C 355.94 100.395 355.24 98.385 354.76 96.955 C 354.29 95.535 353.69 93.735 353.44 92.965 C 353.19 92.195 352.83 91.155 352.63 90.655 C 352.43 90.155 352.08 89.355 351.87 88.885 C 351.65 88.415 351.23 87.595 350.93 87.055 C 350.63 86.515 350.03 85.535 349.6 84.875 C 349.17 84.215 348.36 83.115 347.81 82.425 C 347.26 81.735 346.22 80.585 345.5 79.865 C 344.79 79.145 343.73 78.185 343.14 77.715 C 342.56 77.245 341.48 76.465 340.74 75.965 C 339.99 75.475 338.98 74.845 338.47 74.565 C 337.97 74.285 337.19 73.895 336.74 73.685 C 336.29 73.475 335.38 73.085 334.72 72.825 C 334.06 72.565 332.86 72.155 332.07 71.925 C 331.27 71.695 330.17 71.425 329.61 71.305 C 329.06 71.195 327.37 70.905 325.86 70.665 C 324.35 70.425 321.86 70.015 320.32 69.745 C 318.78 69.485 316.81 69.145 315.94 68.985 C 315.07 68.825 313.09 68.445 311.56 68.155 C 310.02 67.865 307.53 67.375 306.02 67.065 C 304.51 66.755 302.16 66.255 300.8 65.965 C 299.44 65.665 297.19 65.165 295.8 64.855 C 294.4 64.535 291.72 63.905 289.85 63.455 C 287.97 63.005 284.91 62.235 283.06 61.755 C 281.2 61.275 278.4 60.535 276.84 60.115 C 275.28 59.685 272.42 58.885 270.49 58.335 C 268.55 57.775 265.61 56.915 263.94 56.405 C 262.27 55.905 259.6 55.075 258.02 54.575 C 256.43 54.075 253.48 53.125 251.47 52.455 C 249.45 51.815 246.44 50.795 244.77 50.215 C 243.1 49.635 240.18 48.595 238.27 47.905 C 236.36 47.215 233.18 46.035 231.2 45.275 C 229.21 44.525 226.11 43.325 224.31 42.605 C 222.51 41.885 219.76 40.775 218.2 40.125 C 216.63 39.475 214.64 38.645 213.76 38.275 C 212.89 37.905 211 37.085 209.57 36.465 C 208.15 35.845 205.87 34.835 204.52 34.225 C 203.17 33.615 200.76 32.515 199.18 31.765 C 197.59 31.025 195.07 29.835 193.59 29.125 C 192.11 28.415 189.57 27.165 187.96 26.355 C 186.34 25.545 184.02 24.365 182.8 23.735 C 181.59 23.095 179.66 22.075 178.52 21.465 C 177.38 20.855 175.47 19.815 174.28 19.155 C 173.09 18.495 171.44 17.555 170.62 17.085 C 169.8 16.605 168.55 15.865 167.83 15.425 C 167.11 14.995 161.46 11.445 155.26 7.533 C 149.07 3.622 143.85 0.334 143.67 0.226 L 143.67 0.199 L 143.34 0 Z M 161.12 24.035 C 161.14 24.035 161.19 24.065 161.28 24.115 L 161.31 24.135 C 161.43 24.215 162.52 24.865 163.74 25.575 C 164.96 26.295 166.76 27.335 167.75 27.895 C 168.73 28.445 170.62 29.495 171.94 30.205 C 173.25 30.925 175.33 32.035 176.55 32.675 C 177.77 33.315 180.65 34.795 182.95 35.945 C 185.26 37.105 188.7 38.805 190.61 39.715 C 192.51 40.625 195.35 41.955 196.92 42.675 C 198.48 43.385 200.93 44.495 202.36 45.125 C 203.79 45.765 206.06 46.755 207.41 47.335 C 208.76 47.925 211.17 48.935 212.76 49.605 C 214.34 50.265 217.03 51.365 218.73 52.045 C 220.42 52.715 222.72 53.625 223.83 54.065 C 224.94 54.495 227 55.285 228.4 55.815 C 229.81 56.345 232.32 57.275 233.99 57.885 C 235.66 58.495 238.39 59.465 240.06 60.055 C 241.73 60.635 245.02 61.755 247.38 62.535 C 249.73 63.325 253.39 64.505 255.51 65.165 C 257.63 65.835 260.6 66.745 262.11 67.195 C 263.62 67.645 266.22 68.405 267.89 68.875 C 269.56 69.355 272.2 70.085 273.76 70.515 C 275.32 70.935 277.69 71.565 279.01 71.915 C 280.33 72.255 282.54 72.815 283.92 73.165 C 285.3 73.505 287.36 74.015 288.49 74.285 C 289.63 74.555 291.58 75.005 292.83 75.295 C 294.07 75.585 296 76.015 297.11 76.255 C 298.22 76.505 300.56 77.005 302.31 77.365 C 304.06 77.725 306.73 78.265 308.24 78.555 C 309.75 78.855 312.41 79.345 314.16 79.665 C 315.91 79.985 318.25 80.395 319.36 80.585 C 320.47 80.765 322.72 81.135 324.37 81.405 C 326.01 81.665 327.86 82.015 328.49 82.175 C 329.12 82.335 330.12 82.665 330.71 82.895 C 331.3 83.125 332.13 83.485 332.55 83.705 C 332.98 83.915 333.67 84.305 334.1 84.565 C 334.53 84.815 335.31 85.355 335.83 85.745 C 336.36 86.145 337.27 86.945 337.85 87.525 C 338.44 88.105 339.2 88.955 339.55 89.405 C 339.9 89.855 340.43 90.595 340.72 91.055 C 341.02 91.515 341.57 92.515 341.93 93.275 C 342.3 94.035 342.75 95.105 342.94 95.665 C 343.12 96.215 343.57 97.585 343.92 98.695 C 344.27 99.805 344.9 101.675 345.32 102.855 C 345.74 104.035 346.44 105.935 346.89 107.095 C 347.33 108.245 347.92 109.735 348.2 110.395 C 348.47 111.055 349.13 112.595 349.67 113.815 C 350.21 115.035 351.33 117.395 352.16 119.065 C 352.99 120.735 354.07 122.805 354.56 123.685 C 355.05 124.555 355.9 126.025 356.46 126.955 C 357.01 127.885 358.08 129.575 358.84 130.725 C 359.6 131.865 360.87 133.665 361.66 134.715 C 362.45 135.775 363.61 137.245 364.23 137.985 C 364.85 138.725 365.87 139.895 366.49 140.585 C 367.12 141.275 368.25 142.445 369.01 143.185 C 369.77 143.925 370.9 144.975 371.5 145.505 C 372.11 146.035 372.94 146.725 373.33 147.045 C 373.73 147.365 374.55 148.005 375.16 148.455 C 375.77 148.905 376.83 149.645 377.52 150.095 C 378.21 150.545 379.36 151.245 380.07 151.665 C 380.79 152.075 382.07 152.745 382.91 153.155 C 383.76 153.565 385.06 154.135 385.8 154.435 C 386.54 154.725 387.68 155.145 388.34 155.355 C 388.99 155.575 390.09 155.895 390.79 156.085 C 391.49 156.265 392.71 156.545 393.51 156.705 C 394.3 156.865 395.64 157.085 396.47 157.195 C 397.31 157.305 398.94 157.435 400.1 157.505 C 401.71 157.585 402.71 157.585 404.36 157.505 C 405.54 157.435 407.07 157.325 407.76 157.245 C 408.45 157.165 409.81 156.965 410.79 156.805 C 411.77 156.635 413.25 156.355 414.07 156.165 C 414.89 155.975 416.66 155.505 418.01 155.125 C 419.36 154.735 420.93 154.335 421.48 154.225 C 422.04 154.115 422.92 153.975 423.45 153.905 C 424 153.845 424.99 153.825 425.81 153.855 C 426.58 153.885 427.54 153.985 427.93 154.065 C 428.33 154.155 428.98 154.355 429.38 154.505 C 429.78 154.655 430.38 154.945 430.72 155.145 C 431.06 155.345 431.72 155.875 432.19 156.315 C 432.65 156.755 433.23 157.405 433.46 157.755 C 433.7 158.115 434.06 158.745 434.27 159.165 C 434.48 159.595 434.78 160.315 434.94 160.765 C 435.1 161.215 435.34 162.085 435.48 162.695 C 435.62 163.295 435.8 164.355 435.89 165.045 C 436.02 165.985 436.06 166.995 436.06 169.135 C 436.06 171.135 436.01 172.475 435.89 173.665 C 435.8 174.585 435.61 176.105 435.48 177.035 C 435.35 177.955 435.09 179.545 434.91 180.545 C 434.72 181.555 434.38 183.265 434.13 184.355 C 433.89 185.435 433.48 187.155 433.22 188.175 C 432.96 189.195 432.42 191.175 432.02 192.565 C 431.62 193.955 430.79 196.595 430.18 198.435 C 429.2 201.395 429.03 201.815 428.77 202.035 C 428.51 202.255 428.41 202.275 427.96 202.245 C 427.52 202.205 427.38 202.145 427.12 201.865 C 426.85 201.595 426.3 200.305 423.88 194.315 C 422.28 190.345 420.9 187.045 420.82 186.975 C 420.74 186.905 420.56 186.855 420.42 186.855 C 420.28 186.855 420.08 186.945 419.96 187.045 C 419.85 187.155 419.71 187.405 419.66 187.605 C 419.61 187.795 419.36 188.765 419.12 189.745 C 418.87 190.715 418.5 192.015 418.29 192.625 C 418.07 193.245 417.67 194.255 417.38 194.885 C 417.1 195.515 416.64 196.425 416.37 196.905 C 416.09 197.395 415.63 198.145 415.34 198.595 C 415.04 199.045 414.46 199.845 414.03 200.375 C 413.61 200.915 412.78 201.825 412.2 202.415 C 411.61 203.005 410.72 203.805 410.21 204.205 C 409.71 204.615 408.82 205.245 408.24 205.625 C 407.66 206.005 406.55 206.635 405.77 207.025 C 405 207.415 404.12 207.815 403.82 207.905 C 403.53 207.995 403.27 208.055 403.25 208.035 C 403.23 208.015 403.16 204.525 403.1 200.285 C 403.04 196.055 402.96 191.965 402.93 191.205 C 402.88 190.025 402.84 189.785 402.69 189.635 C 402.59 189.535 402.41 189.455 402.29 189.455 C 402.17 189.455 401.99 189.515 401.9 189.575 C 401.79 189.655 401.33 191.025 400.57 193.495 C 399.94 195.585 399.27 197.715 399.08 198.215 C 398.89 198.725 398.44 199.745 398.08 200.485 C 397.72 201.235 397.03 202.425 396.55 203.135 C 396.08 203.845 395.39 204.795 395.03 205.245 C 394.67 205.695 393.88 206.565 393.27 207.175 C 392.66 207.785 391.79 208.575 391.34 208.945 C 390.89 209.305 389.94 209.985 389.24 210.455 C 388.53 210.925 387.36 211.605 386.64 211.975 C 385.91 212.345 384.82 212.835 384.21 213.085 C 383.61 213.325 382.57 213.675 381.91 213.865 C 381.26 214.055 380.7 214.195 380.69 214.175 C 380.67 214.155 381.82 209.395 383.26 203.605 C 384.69 197.805 386.07 192.205 386.33 191.155 C 386.68 189.745 386.78 189.185 386.71 189.055 C 386.66 188.955 386.48 188.815 386.32 188.725 C 386.09 188.605 385.96 188.595 385.8 188.665 C 385.66 188.735 383.97 191.435 380.98 196.345 C 378.17 200.945 376.01 204.395 375.46 205.135 C 374.9 205.885 374.01 206.895 373.15 207.755 C 372.38 208.525 371.31 209.475 370.78 209.885 C 370.25 210.285 369.45 210.855 369 211.145 C 368.55 211.435 367.79 211.895 367.31 212.155 C 366.83 212.425 365.9 212.875 365.24 213.175 C 364.58 213.465 363.41 213.905 362.64 214.145 C 361.88 214.385 359.26 215.045 356.83 215.605 C 354.4 216.165 352.38 216.605 352.35 216.595 C 352.31 216.575 355.5 209.525 359.42 200.915 C 363.35 192.305 366.6 185.165 366.63 185.045 C 366.69 184.885 366.63 184.765 366.41 184.535 C 366.16 184.295 366.05 184.245 365.74 184.275 L 365.36 184.305 L 357.71 192.585 C 353.51 197.145 349.74 201.165 349.35 201.525 C 348.96 201.895 348.24 202.495 347.77 202.875 C 347.29 203.255 346.62 203.765 346.27 204.005 C 345.93 204.255 345.21 204.715 344.68 205.025 C 344.15 205.345 343.33 205.805 342.86 206.045 C 342.38 206.285 341.61 206.635 341.15 206.825 C 340.68 207.015 339.79 207.345 339.16 207.555 C 338.53 207.755 337.52 208.035 336.92 208.175 C 336.32 208.305 335.35 208.485 334.77 208.565 C 334.18 208.655 330 209.065 325.47 209.485 C 320.94 209.905 317.23 210.225 317.21 210.215 C 317.2 210.195 323.29 203.265 330.74 194.805 C 338.2 186.345 344.35 179.315 344.42 179.195 C 344.5 179.035 344.51 178.895 344.45 178.725 C 344.39 178.585 344.24 178.425 344.1 178.355 C 343.89 178.265 343.8 178.275 343.57 178.405 C 343.42 178.495 338.43 182.125 332.48 186.485 C 326.53 190.835 321.32 194.625 320.9 194.895 C 320.47 195.165 319.68 195.645 319.13 195.945 C 318.58 196.245 317.7 196.685 317.17 196.925 C 316.64 197.165 315.77 197.525 315.23 197.725 C 314.69 197.925 313.95 198.185 313.58 198.295 C 313.2 198.405 312.45 198.615 311.89 198.745 C 311.34 198.885 310.37 199.075 309.74 199.185 C 309.11 199.285 307.94 199.415 307.14 199.475 C 305.94 199.565 304.65 199.555 299.76 199.385 C 296.5 199.275 292.56 199.135 291 199.085 C 289.44 199.025 286.97 198.945 285.52 198.895 C 284.07 198.835 281.83 198.765 280.54 198.735 C 279.25 198.695 278.19 198.635 278.19 198.605 C 278.19 198.565 278.83 198.045 279.61 197.435 C 280.39 196.825 285.8 192.635 291.62 188.105 C 297.45 183.585 305.71 177.175 309.97 173.865 C 314.23 170.555 319.17 166.725 320.95 165.355 C 322.72 163.985 324.29 162.735 324.44 162.575 C 324.6 162.405 324.7 162.185 324.7 162.025 C 324.7 161.865 324.61 161.665 324.47 161.535 C 324.31 161.385 324.16 161.325 324.01 161.365 C 323.89 161.385 321.36 162.455 318.39 163.725 C 315.43 164.995 304.42 169.705 293.94 174.195 C 282.89 178.915 274.27 182.545 273.45 182.825 C 272.67 183.085 271.46 183.425 270.75 183.585 C 270.05 183.735 268.97 183.925 268.34 184.005 C 267.72 184.085 266.57 184.185 265.79 184.215 C 264.97 184.255 263.79 184.235 262.98 184.165 C 262.21 184.105 261.15 183.995 260.62 183.915 C 260.09 183.835 259.03 183.625 258.28 183.435 C 257.52 183.245 256.46 182.935 255.92 182.745 C 255.38 182.565 254.47 182.205 253.9 181.945 C 253.34 181.695 248.26 179.045 242.62 176.065 C 236.98 173.075 232.36 170.605 232.36 170.575 C 232.36 170.545 234.79 169.605 237.77 168.485 C 240.75 167.375 250.51 163.705 259.46 160.345 C 268.41 156.975 282.19 151.805 290.09 148.835 C 297.98 145.875 304.55 143.395 304.7 143.345 C 304.85 143.285 305.02 143.135 305.07 143.005 C 305.13 142.875 305.15 142.655 305.12 142.515 C 305.08 142.375 304.96 142.225 304.84 142.185 C 304.69 142.125 302.95 142.405 299.33 143.045 C 296.42 143.565 281.97 146.135 267.21 148.755 C 252.46 151.385 240.01 153.585 239.53 153.655 C 239.04 153.725 237.73 153.775 236.54 153.775 C 235.35 153.775 233.99 153.725 233.41 153.655 C 232.86 153.585 231.9 153.415 231.28 153.285 C 230.66 153.155 229.7 152.925 229.16 152.765 C 228.61 152.615 227.67 152.295 227.06 152.065 C 226.45 151.825 225.56 151.445 225.08 151.215 C 224.61 150.985 223.87 150.605 223.45 150.375 C 223.02 150.135 222.29 149.685 221.81 149.365 C 221.33 149.045 220.12 148.175 219.11 147.425 C 218.11 146.675 215.2 144.505 212.66 142.605 C 210.12 140.705 205.37 137.165 202.12 134.735 C 198.86 132.295 196.01 130.175 195.79 130.005 L 195.39 129.705 L 195.65 129.635 C 195.79 129.595 197.9 129.365 200.34 129.125 C 202.77 128.885 207.34 128.435 210.49 128.115 C 213.65 127.795 218.8 127.275 221.96 126.955 C 225.11 126.635 229.81 126.165 232.4 125.905 C 235 125.635 243.99 124.725 252.38 123.885 C 260.78 123.035 270.64 122.035 274.29 121.665 C 277.95 121.305 282.09 120.885 283.49 120.745 C 285.06 120.585 286.16 120.435 286.36 120.345 C 286.53 120.265 286.77 120.065 286.88 119.895 C 287.03 119.685 287.09 119.465 287.09 119.105 C 287.09 118.705 287.04 118.535 286.83 118.255 C 286.66 118.045 286.43 117.875 286.21 117.815 C 286.01 117.755 283.7 117.515 281.08 117.275 C 278.46 117.045 275.17 116.735 273.76 116.605 C 272.36 116.475 266.75 115.955 261.29 115.455 C 255.84 114.955 248.3 114.255 244.54 113.915 C 240.78 113.565 236.75 113.195 235.58 113.085 C 234.41 112.985 231.12 112.675 228.26 112.415 C 225.4 112.145 222.11 111.845 220.94 111.745 C 219.78 111.635 216.72 111.355 214.15 111.115 C 211.59 110.875 207.86 110.535 205.87 110.345 C 203.89 110.165 200.81 109.885 199.04 109.725 C 197.26 109.565 195.29 109.345 194.65 109.235 C 194.02 109.125 193.22 108.975 192.87 108.895 C 192.53 108.815 191.75 108.595 191.14 108.405 C 190.53 108.225 189.56 107.875 188.98 107.635 C 188.4 107.405 187.42 106.955 186.81 106.645 C 186.2 106.325 185.17 105.725 184.51 105.295 C 183.86 104.875 182.91 104.185 182.39 103.785 C 181.86 103.365 180.99 102.595 180.44 102.055 C 179.89 101.525 179.09 100.675 178.67 100.175 C 178.25 99.675 177.61 98.845 177.24 98.345 C 176.89 97.845 176.33 96.985 176.01 96.445 C 175.69 95.905 175.25 95.125 175.04 94.715 C 174.84 94.305 173.06 90.115 171.09 85.405 C 169.12 80.705 167.52 76.835 167.54 76.825 C 167.56 76.815 173.22 77.755 180.13 78.905 C 187.05 80.055 201.48 82.455 212.2 84.235 C 222.93 86.015 238.34 88.575 246.46 89.925 C 254.57 91.275 261.36 92.375 261.55 92.375 C 261.79 92.375 261.98 92.285 262.22 92.075 C 262.43 91.895 262.6 91.625 262.67 91.395 C 262.74 91.115 262.74 90.925 262.67 90.715 C 262.61 90.545 262.49 90.335 262.4 90.245 C 262.32 90.145 261.85 89.935 261.37 89.785 C 260.89 89.625 256.59 88.255 251.83 86.745 C 247.06 85.225 242.71 83.835 242.15 83.655 C 241.59 83.485 239.62 82.855 237.77 82.265 C 235.91 81.675 233.4 80.875 232.18 80.485 C 230.96 80.095 228 79.145 225.59 78.375 C 223.18 77.615 218.74 76.195 215.72 75.235 C 212.7 74.275 208.75 73.015 206.95 72.435 C 205.15 71.865 201.71 70.765 199.3 70.005 C 196.89 69.235 192.53 67.845 189.61 66.915 C 186.69 65.985 183.76 65.005 183.11 64.735 C 182.45 64.465 181.42 63.985 180.81 63.665 C 180.2 63.345 179.09 62.675 178.35 62.185 C 177.61 61.685 176.57 60.925 176.04 60.485 C 175.51 60.045 174.65 59.255 174.12 58.725 C 173.59 58.185 172.77 57.275 172.3 56.695 C 171.84 56.115 171.18 55.225 170.85 54.725 C 170.51 54.215 170 53.365 169.7 52.835 C 169.4 52.295 168.98 51.455 168.76 50.955 C 168.54 50.455 168.21 49.635 168.03 49.135 C 167.85 48.635 166.23 42.825 164.43 36.235 C 162.63 29.635 161.14 24.185 161.11 24.115 C 161.09 24.055 161.09 24.035 161.12 24.035 Z M 39 332.615 L 39 490.675 L 61.61 490.675 C 63.87 490.675 66.14 490.305 68.4 489.545 C 70.66 488.795 72.69 487.585 74.5 485.925 C 76.31 484.275 77.74 482.165 78.8 479.595 C 80 477.035 80.61 474.015 80.61 470.555 L 80.61 424.875 C 80.61 420.055 79.85 416.505 78.35 414.245 C 76.84 411.835 74.95 410.325 72.69 409.725 C 74.95 408.975 76.84 407.465 78.35 405.205 C 79.85 402.795 80.61 399.175 80.61 394.345 L 80.61 354.095 C 80.61 350.325 80 347.085 78.8 344.375 C 77.74 341.665 76.31 339.475 74.5 337.815 C 72.69 336.005 70.66 334.725 68.4 333.975 C 66.14 333.065 63.87 332.615 61.61 332.615 L 39 332.615 Z M 88.46 332.615 L 88.46 490.675 L 101.35 490.675 L 101.35 416.735 L 111.08 416.735 C 115.15 416.735 117.18 420.575 117.18 428.265 L 117.18 465.125 C 117.18 472.515 117.33 478.165 117.63 482.085 C 117.94 486.005 118.54 488.865 119.45 490.675 L 132.33 490.675 C 132.03 489.775 131.58 487.515 130.98 483.895 C 130.37 480.275 130.07 474.025 130.07 465.125 L 130.07 427.135 C 130.07 422.315 129.32 418.775 127.81 416.505 C 126.3 414.095 124.42 412.585 122.16 411.985 C 124.42 411.235 126.3 409.725 127.81 407.465 C 129.32 405.055 130.07 401.435 130.07 396.605 L 130.07 353.875 C 130.07 346.785 128.19 341.515 124.42 338.045 C 120.65 334.425 116.2 332.615 111.08 332.615 L 88.46 332.615 Z M 134.53 332.615 L 151.49 430.525 L 151.49 490.675 L 164.38 490.675 L 164.38 430.525 L 181.34 332.615 L 168.45 332.615 L 158.04 401.135 L 157.59 401.135 L 147.42 332.615 L 134.53 332.615 Z M 189.64 332.615 L 174.72 490.675 L 185.8 490.675 L 189.87 446.815 L 205.02 446.815 L 209.09 490.675 L 221.53 490.675 L 206.15 332.615 L 189.64 332.615 Z M 226.25 332.615 L 226.25 490.675 L 237.11 490.675 L 237.11 371.735 L 237.33 371.735 L 259.49 490.675 L 273.96 490.675 L 273.96 332.615 L 262.21 332.615 L 262.21 450.205 L 240.95 332.615 L 226.25 332.615 Z M 309.29 332.615 L 309.29 490.675 L 322.18 490.675 L 322.18 423.975 L 333.04 423.975 C 338.16 423.975 342.38 422.615 345.7 419.905 C 349.17 417.035 350.9 412.365 350.9 405.885 L 350.9 353.875 C 350.9 346.935 349.01 341.665 345.25 338.045 C 341.48 334.425 337.03 332.615 331.9 332.615 L 309.29 332.615 Z M 366.3 332.615 L 351.38 490.675 L 362.46 490.675 L 366.53 446.815 L 381.68 446.815 L 385.75 490.675 L 398.19 490.675 L 382.81 332.615 L 366.3 332.615 Z M 403.36 332.615 L 403.36 490.675 L 435.47 490.675 L 435.47 480.955 L 416.25 480.955 L 416.25 332.615 L 403.36 332.615 Z M 440.01 332.615 L 440.01 490.675 L 450.87 490.675 L 450.87 371.735 L 451.09 371.735 L 464.43 490.675 L 474.16 490.675 L 487.95 371.735 L 488.18 371.735 L 488.18 490.675 L 498.8 490.675 L 498.8 332.615 L 482.07 332.615 L 469.41 442.285 L 469.18 442.285 L 456.74 332.615 L 440.01 332.615 Z M 519.12 332.615 L 504.19 490.675 L 515.27 490.675 L 519.34 446.815 L 534.49 446.815 L 538.56 490.675 L 551 490.675 L 535.62 332.615 L 519.12 332.615 Z M 51.89 343.475 L 60.48 343.475 C 62.44 343.475 64.1 344.455 65.46 346.405 C 66.96 348.365 67.72 351.535 67.72 355.905 L 67.72 393.445 C 67.72 400.985 65.68 404.745 61.61 404.745 L 51.89 404.745 L 51.89 343.475 Z M 101.35 343.475 L 109.95 343.475 C 111.91 343.475 113.57 344.455 114.92 346.405 C 116.43 348.365 117.18 351.535 117.18 355.905 L 117.18 395.705 C 117.18 403.245 115.15 407.015 111.08 407.015 L 101.35 407.015 L 101.35 343.475 Z M 322.18 343.475 L 330.77 343.475 C 332.73 343.475 334.39 344.455 335.75 346.405 C 337.26 348.365 338.01 351.535 338.01 355.905 L 338.01 402.035 C 338.01 409.575 335.97 413.345 331.9 413.345 L 322.18 413.345 L 322.18 343.475 Z M 197.33 369.025 L 197.78 369.025 L 204.12 437.085 L 190.77 437.085 L 197.33 369.025 Z M 373.99 369.025 L 374.45 369.025 L 380.78 437.085 L 367.44 437.085 L 373.99 369.025 Z M 526.8 369.025 L 527.26 369.025 L 533.59 437.085 L 520.25 437.085 L 526.8 369.025 Z M 51.89 414.475 L 61.61 414.475 C 65.68 414.475 67.72 418.245 67.72 425.775 L 67.72 468.745 C 67.72 472.665 66.96 475.525 65.46 477.335 C 64.1 478.995 62.44 479.825 60.48 479.825 L 51.89 479.825 L 51.89 414.475 Z M 367.04 536.405 C 362.46 536.405 358.23 537.945 355.07 540.635 C 351.84 543.465 350.09 547.295 350.09 551.395 C 350.09 553.815 350.56 555.975 351.57 557.855 C 352.44 559.605 353.72 561.085 355.4 562.495 C 358.36 564.785 362.06 566.255 365.83 567.675 C 366.1 567.805 366.36 567.875 366.57 567.945 C 369.32 569.015 371.74 569.895 373.22 571.035 C 374.5 571.975 375.04 572.985 375.04 574.595 C 375.04 576.145 374.43 577.285 373.29 578.165 C 371.95 579.105 369.93 579.575 367.57 579.575 C 365.56 579.575 363.4 579.105 361.52 578.235 C 359.44 577.225 357.62 575.805 356.21 574.065 L 354.39 571.775 L 347.47 580.115 L 348.88 581.595 C 353.79 586.835 360.38 589.725 367.51 589.725 C 372.28 589.725 376.72 588.385 380.02 585.825 C 381.83 584.415 383.24 582.735 384.25 580.785 C 385.33 578.765 385.87 576.415 385.87 573.925 C 385.87 569.355 384.25 565.855 381.02 563.165 C 378.27 560.945 374.64 559.535 370.8 557.985 C 370.4 557.855 370 557.655 369.53 557.515 C 366.84 556.445 364.28 555.505 362.67 554.355 C 361.52 553.555 360.78 552.745 360.85 551.195 C 360.85 547.765 364.21 546.485 367.04 546.485 C 370.06 546.485 373.69 548.105 376.99 550.795 L 378.87 552.335 L 385.33 544.005 L 383.58 542.525 C 378.6 538.555 372.89 536.405 367.04 536.405 Z M 406.04 536.405 C 401.47 536.405 397.23 537.945 394.07 540.635 C 390.85 543.465 389.1 547.295 389.1 551.395 C 389.1 553.815 389.57 555.975 390.58 557.855 C 391.45 559.605 392.73 561.085 394.41 562.495 C 397.37 564.785 401.07 566.255 404.83 567.675 C 405.1 567.805 405.37 567.875 405.57 567.945 C 408.33 569.015 410.75 569.895 412.23 571.035 C 413.51 571.975 414.05 572.985 414.05 574.595 C 414.05 576.145 413.44 577.285 412.3 578.165 C 410.95 579.105 408.94 579.575 406.58 579.575 C 404.56 579.575 402.41 579.105 400.53 578.235 C 398.45 577.225 396.63 575.805 395.22 574.065 L 393.4 571.775 L 386.48 580.115 L 387.89 581.595 C 392.8 586.835 399.39 589.725 406.52 589.725 C 411.29 589.725 415.73 588.385 419.02 585.825 C 420.84 584.415 422.25 582.735 423.26 580.785 C 424.34 578.765 424.88 576.415 424.88 573.925 C 424.88 569.355 423.26 565.855 420.03 563.165 C 417.28 560.945 413.64 559.535 409.81 557.985 C 409.41 557.855 409 557.655 408.53 557.515 C 405.84 556.445 403.29 555.505 401.67 554.355 C 400.53 553.555 399.79 552.745 399.86 551.195 C 399.86 547.765 403.22 546.485 406.04 546.485 C 409.07 546.485 412.7 548.105 416 550.795 L 417.88 552.335 L 424.34 544.005 L 422.59 542.525 C 417.61 538.555 411.9 536.405 406.04 536.405 Z M 165.12 536.875 L 165.12 589.325 L 175.68 589.325 L 175.68 569.015 L 199.62 569.015 L 199.62 558.995 L 175.68 558.995 L 175.68 546.895 L 199.62 546.895 L 199.62 536.875 L 165.12 536.875 Z M 214.9 536.875 L 204.34 540.235 L 204.34 589.325 L 214.9 589.325 L 214.9 536.875 Z M 218.49 536.875 L 218.49 546.895 L 232.75 546.895 L 232.75 589.325 L 243.3 589.325 L 243.3 546.895 L 257.76 546.895 L 257.76 536.875 L 218.49 536.875 Z M 260.87 536.875 L 260.87 589.325 L 271.43 589.325 L 271.43 556.575 L 294.63 589.325 L 304.25 589.325 L 304.25 536.875 L 293.69 536.875 L 293.69 569.955 L 270.22 536.875 L 260.87 536.875 Z M 311.44 536.875 L 311.44 589.325 L 345.4 589.325 L 345.4 579.305 L 322 579.305 L 322 568.215 L 345.4 568.215 L 345.4 558.195 L 322 558.195 L 322 546.895 L 345.4 546.895 L 345.4 536.875 L 311.44 536.875 Z" style="fill: rgb(255, 255, 255);"/>
</svg>